<svg width="64" height="32" viewBox="0 0 64 32" fill="none" xmlns="http://www.w3.org/2000/svg">
<path d="M51.6336 10.6574C64.5987 7.91209 65.2015 29.1621 54.5677 29.7422C43.934 30.3223 21.7519 29.7422 9.49461 29.7422C-2.76269 29.7422 1.13054 7.86836 13.1225 10.6574M51.6336 10.6574C49.2267 11.1487 46.6723 13.0154 46.6723 16.1595M51.6336 10.6574C50.6457 4.4185 41.2089 -1.48093 31.1446 4.46544M31.1446 4.46544C33.9262 6.25716 35.9584 8.49372 35.9584 11.4412M31.1446 4.46544C25.3483 0.731904 17.1504 1.42184 13.1225 10.6574M35.9584 11.4412C35.9584 17.8297 27.1656 18.3679 26.2815 15.8134M35.9584 11.4412C40.5758 12.0799 44.7948 15.8625 44.4565 20.7281M44.4565 20.7281C51.0878 23.9682 56.3929 19.9006 56.3929 15.8134M44.4565 20.7281C44.2987 22.4446 40.7232 25.4911 37.4321 23.6244M13.1225 10.6574C15.2347 11.1487 17.6908 12.2294 19.4932 14.2622M20.5287 19.9006C21.0849 18.3296 20.8345 16.1595 19.4932 14.2622M20.5287 19.9006C24.5131 25.3929 31.7886 25.3459 34.5884 20.7281M20.5287 19.9006C18.373 24.3634 10.1039 22.8429 7.80192 21.6507M19.4932 14.2622C19.1589 9.51996 24.1692 7.56034 27.1656 8.73935" stroke="white" stroke-width="2.5" stroke-linecap="round"/>
</svg>
